<svg xmlns="http://www.w3.org/2000/svg" xmlns:inkspace="http://www.inkscape.org/namespaces/inkscape" xmlns:xlink="http://www.w3.org/1999/xlink" viewBox="0 0 640 492">
  <defs id="defs_block">
    <filter height="1.504" id="filter_blur" inkspace:collect="always" width="1.1575" x="-0.07875" y="-0.252">
      <feGaussianBlur id="feGaussianBlur3780" inkspace:collect="always" stdDeviation="4.2"/>
    </filter>
  </defs>
  <title>blockdiag</title>
  <desc>seqdiag { browser  -&gt; webserver [label = &quot;GET /index.html&quot;];
browser &lt;-- webserver;
browser  -&gt; webserver [label = &quot;POST /blog/comment&quot;];
          webserver  -&gt; database [label = &quot;INSERT comment&quot;];
          webserver &lt;-- database;
browser &lt;-- webserver;

 }
</desc>
  <rect fill="rgb(0,0,0)" height="328" style="filter:url(#filter_blur);opacity:0.7;fill-opacity:1" width="8" x="127" y="142"/>
  <rect fill="rgb(0,0,0)" height="50" style="filter:url(#filter_blur);opacity:0.7;fill-opacity:1" width="8" x="319" y="142"/>
  <rect fill="rgb(0,0,0)" height="165" style="filter:url(#filter_blur);opacity:0.7;fill-opacity:1" width="8" x="319" y="259"/>
  <rect fill="rgb(0,0,0)" height="50" style="filter:url(#filter_blur);opacity:0.7;fill-opacity:1" width="8" x="511" y="324"/>
  <rect fill="rgb(0,0,0)" height="40" stroke="rgb(0,0,0)" style="filter:url(#filter_blur);opacity:0.7;fill-opacity:1" width="128" x="67" y="46"/>
  <rect fill="rgb(0,0,0)" height="40" stroke="rgb(0,0,0)" style="filter:url(#filter_blur);opacity:0.7;fill-opacity:1" width="128" x="259" y="46"/>
  <rect fill="rgb(0,0,0)" height="40" stroke="rgb(0,0,0)" style="filter:url(#filter_blur);opacity:0.7;fill-opacity:1" width="128" x="451" y="46"/>
  <path d="M 128 80 L 128 480" fill="none" stroke="rgb(0,0,0)" stroke-dasharray="8 4"/>
  <rect fill="moccasin" height="328" stroke="rgb(0,0,0)" width="8" x="124" y="136"/>
  <path d="M 320 80 L 320 480" fill="none" stroke="rgb(0,0,0)" stroke-dasharray="8 4"/>
  <rect fill="moccasin" height="50" stroke="rgb(0,0,0)" width="8" x="316" y="136"/>
  <rect fill="moccasin" height="165" stroke="rgb(0,0,0)" width="8" x="316" y="253"/>
  <path d="M 512 80 L 512 480" fill="none" stroke="rgb(0,0,0)" stroke-dasharray="8 4"/>
  <rect fill="moccasin" height="50" stroke="rgb(0,0,0)" width="8" x="508" y="318"/>
  <rect fill="rgb(255,255,255)" height="40" stroke="rgb(0,0,0)" width="128" x="64" y="40"/>
  <text fill="rgb(0,0,0)" font-family="sans-serif" font-size="11" font-style="normal" font-weight="normal" text-anchor="middle" textLength="40" x="128.0" y="66">browser</text>
  <rect fill="rgb(255,255,255)" height="40" stroke="rgb(0,0,0)" width="128" x="256" y="40"/>
  <text fill="rgb(0,0,0)" font-family="sans-serif" font-size="11" font-style="normal" font-weight="normal" text-anchor="middle" textLength="52" x="320.0" y="66">webserver</text>
  <rect fill="rgb(255,255,255)" height="40" stroke="rgb(0,0,0)" width="128" x="448" y="40"/>
  <text fill="rgb(0,0,0)" font-family="sans-serif" font-size="11" font-style="normal" font-weight="normal" text-anchor="middle" textLength="45" x="512.5" y="66">database</text>
  <path d="M 136 136 L 312 136" fill="none" stroke="rgb(0,0,0)"/>
  <polygon fill="rgb(0,0,0)" points="304,132 312,136 304,140" stroke="rgb(0,0,0)"/>
  <path d="M 136 186 L 312 186" fill="none" stroke="rgb(0,0,0)" stroke-dasharray="4"/>
  <polygon fill="rgb(0,0,0)" points="144,182 136,186 144,190" stroke="rgb(0,0,0)"/>
  <path d="M 136 253 L 312 253" fill="none" stroke="rgb(0,0,0)"/>
  <polygon fill="rgb(0,0,0)" points="304,249 312,253 304,257" stroke="rgb(0,0,0)"/>
  <path d="M 328 318 L 504 318" fill="none" stroke="rgb(0,0,0)"/>
  <polygon fill="rgb(0,0,0)" points="496,314 504,318 496,322" stroke="rgb(0,0,0)"/>
  <path d="M 328 368 L 504 368" fill="none" stroke="rgb(0,0,0)" stroke-dasharray="4"/>
  <polygon fill="rgb(0,0,0)" points="336,364 328,368 336,372" stroke="rgb(0,0,0)"/>
  <path d="M 136 418 L 312 418" fill="none" stroke="rgb(0,0,0)" stroke-dasharray="4"/>
  <polygon fill="rgb(0,0,0)" points="144,414 136,418 144,422" stroke="rgb(0,0,0)"/>
  <text fill="rgb(0,0,0)" font-family="sans-serif" font-size="11" font-style="normal" font-weight="normal" text-anchor="middle" textLength="83" x="181.5" y="134">GET /index.html</text>
  <text fill="rgb(0,0,0)" font-family="sans-serif" font-size="11" font-style="normal" font-weight="normal" text-anchor="middle" textLength="114" x="197.0" y="251">POST /blog/comment</text>
  <text fill="rgb(0,0,0)" font-family="sans-serif" font-size="11" font-style="normal" font-weight="normal" text-anchor="middle" textLength="89" x="376.5" y="316">INSERT comment</text>
</svg>