<svg xmlns="http://www.w3.org/2000/svg" width="100" height="100" x="0" y="0" viewBox="0 0 285.477 220" font-family="sans-serif" stroke="rgb(0,0,0)" stroke-width="2" stroke-linecap="round">
<line x1="176.2" y1="120.0" x2="176.2" y2="147.0" opacity="1.0" stroke="rgb(0,0,0)" stroke-width="2.0" />
<line x1="80.0" y1="80.0" x2="53.0" y2="80.0" opacity="1.0" stroke="rgb(0,0,0)" stroke-width="2.0" />
<line x1="99.5" y1="124.7" x2="95.2" y2="138.0" opacity="1.0" stroke="rgb(0,0,0)" stroke-width="2.0" />
<line x1="210.8" y1="60.0" x2="234.2" y2="46.5" opacity="1.0" stroke="rgb(0,0,0)" stroke-width="2.0" />
<line x1="164.9" y1="166.5" x2="152.8" y2="173.5" opacity="1.0" stroke="rgb(0,0,0)" stroke-width="2.0" />
<line x1="187.5" y1="166.5" x2="199.6" y2="173.5" opacity="1.0" stroke="rgb(0,0,0)" stroke-width="2.0" />
<line x1="95.8" y1="58.3" x2="80.0" y2="80.0" opacity="1.0" stroke="rgb(0,0,0)" stroke-width="2.0" />
<line x1="100.4" y1="64.2" x2="89.4" y2="79.4" opacity="1.0" stroke="rgb(0,0,0)" stroke-width="2.0" />
<line x1="80.0" y1="80.0" x2="95.9" y2="101.8" opacity="1.0" stroke="rgb(0,0,0)" stroke-width="2.0" />
<line x1="115.9" y1="108.3" x2="141.6" y2="100.0" opacity="1.0" stroke="rgb(0,0,0)" stroke-width="2.0" />
<line x1="141.6" y1="100.0" x2="141.6" y2="60.0" opacity="1.0" stroke="rgb(0,0,0)" stroke-width="2.0" />
<line x1="134.4" y1="94.0" x2="134.4" y2="66.0" opacity="1.0" stroke="rgb(0,0,0)" stroke-width="2.0" />
<line x1="141.6" y1="60.0" x2="115.9" y2="51.7" opacity="1.0" stroke="rgb(0,0,0)" stroke-width="2.0" />
<line x1="210.8" y1="60.0" x2="187.6" y2="46.6" opacity="1.0" stroke="rgb(0,0,0)" stroke-width="2.0" />
<line x1="202.0" y1="63.2" x2="185.8" y2="53.8" opacity="1.0" stroke="rgb(0,0,0)" stroke-width="2.0" />
<line x1="164.9" y1="46.5" x2="141.6" y2="60.0" opacity="1.0" stroke="rgb(0,0,0)" stroke-width="2.0" />
<line x1="141.6" y1="100.0" x2="176.2" y2="120.0" opacity="1.0" stroke="rgb(0,0,0)" stroke-width="2.0" />
<line x1="176.2" y1="120.0" x2="199.4" y2="106.6" opacity="1.0" stroke="rgb(0,0,0)" stroke-width="2.0" />
<line x1="177.8" y1="110.8" x2="194.1" y2="101.4" opacity="1.0" stroke="rgb(0,0,0)" stroke-width="2.0" />
<line x1="210.8" y1="87.0" x2="210.8" y2="60.0" opacity="1.0" stroke="rgb(0,0,0)" stroke-width="2.0" />
<text x="97.511410" y="55.639320" fill="rgb(12,12,255)" stroke-width="0" font-weight="bold" font-size="16">N</text>
<text x="97.511410" y="120.360680" fill="rgb(12,12,255)" stroke-width="0" font-weight="bold" font-size="16">N</text>
<text x="204.835703" y="108.000000" fill="rgb(12,12,255)" stroke-width="0" font-weight="bold" font-size="16">N</text>
<text x="170.194687" y="48.000000" fill="rgb(12,12,255)" stroke-width="0" font-weight="bold" font-size="16">N</text>
<text x="170.194687" y="168.000000" fill="rgb(12,12,255)" stroke-width="0" font-weight="bold" font-size="16">N</text>
<text x="34.000000" y="88.000000" fill="rgb(191,191,191)" stroke-width="0" font-weight="bold" font-size="16">H</text>
<text x="85.150730" y="158.402940" fill="rgb(191,191,191)" stroke-width="0" font-weight="bold" font-size="16">H</text>
<text x="239.476719" y="48.000000" fill="rgb(191,191,191)" stroke-width="0" font-weight="bold" font-size="16">H</text>
<text x="135.553671" y="188.000000" fill="rgb(191,191,191)" stroke-width="0" font-weight="bold" font-size="16">H</text>
<text x="204.835703" y="188.000000" fill="rgb(191,191,191)" stroke-width="0" font-weight="bold" font-size="16">H</text>
</svg>
